<?xml version="1.0" standalone="no"?>
<!DOCTYPE svg PUBLIC "-//W3C//DTD SVG 20010904//EN"
 "http://www.w3.org/TR/2001/REC-SVG-20010904/DTD/svg10.dtd">
<svg version="1.0" xmlns="http://www.w3.org/2000/svg"
 width="204.000000pt" height="209.000000pt" viewBox="0 0 204.000000 209.000000"
 preserveAspectRatio="xMidYMid meet">

<g transform="translate(0.000000,209.000000) scale(0.100000,-0.100000)"
fill="#000000" stroke="none">
<path d="M578 1823 l-437 -258 -1 -520 0 -520 176 -103 c96 -57 182 -101 189
-98 8 3 50 30 94 61 65 46 86 67 113 116 18 32 36 59 40 59 5 0 8 27 8 59 0
33 5 63 10 66 6 3 10 15 10 26 0 16 -3 18 -19 9 -49 -26 -104 11 -126 84 -28
94 -19 116 46 116 22 0 32 -7 44 -30 21 -41 47 -31 34 13 -12 41 -11 127 1
203 9 52 7 65 -10 99 -22 42 -26 90 -10 100 6 4 16 21 24 39 20 48 62 73 160
95 66 14 96 17 128 9 23 -5 54 -6 69 -3 55 12 118 -43 159 -140 23 -54 25 -84
8 -89 -7 -2 -32 -9 -56 -15 -34 -10 -46 -19 -62 -51 -25 -49 -25 -55 0 -30 11
11 25 20 31 20 5 0 8 4 5 9 -6 10 45 31 74 31 21 0 50 -41 50 -69 0 -10 7 -32
15 -47 8 -16 15 -41 15 -56 0 -19 4 -26 14 -22 14 5 26 -52 26 -122 0 -67 -26
-89 -33 -26 -4 37 -4 36 -5 -7 -4 -85 -32 -151 -96 -218 -61 -65 -95 -82 -166
-84 l-35 -1 45 -14 c34 -11 51 -12 72 -3 14 6 36 8 47 4 15 -5 21 -2 21 9 0 9
7 16 15 16 11 0 15 -11 15 -37 0 -26 3 -33 9 -24 7 10 12 7 22 -15 15 -31 73
-64 192 -107 l67 -25 165 96 164 97 1 520 0 520 -432 255 c-237 140 -437 256
-442 258 -6 1 -208 -113 -448 -255z"/>
<path d="M905 1151 c-11 -5 -26 -6 -33 -4 -20 8 -62 -25 -62 -49 0 -20 1 -20
26 6 16 15 38 26 54 26 52 0 120 13 114 21 -6 11 -72 11 -99 0z"/>
<path d="M1205 1120 c-8 -12 12 -40 28 -40 5 0 15 8 22 17 11 15 13 15 19 -5
4 -12 14 -22 22 -22 30 0 10 34 -29 49 -36 14 -54 14 -62 1z m25 -10 c0 -5 -5
-10 -11 -10 -5 0 -7 5 -4 10 3 6 8 10 11 10 2 0 4 -4 4 -10z"/>
<path d="M892 1068 c-25 -15 -30 -24 -22 -32 8 -8 14 -6 21 7 9 15 13 16 26 5
12 -10 18 -9 29 6 28 39 -3 47 -54 14z"/>
<path d="M1361 954 c0 -11 3 -14 6 -6 3 7 2 16 -1 19 -3 4 -6 -2 -5 -13z"/>
<path d="M1155 900 c-3 -5 3 -10 14 -10 12 0 21 5 21 10 0 6 -6 10 -14 10 -8
0 -18 -4 -21 -10z"/>
<path d="M1070 890 c0 -5 9 -10 20 -10 11 0 20 5 20 10 0 6 -9 10 -20 10 -11
0 -20 -4 -20 -10z"/>
<path d="M695 870 c-3 -5 -1 -10 4 -10 6 0 11 5 11 10 0 6 -2 10 -4 10 -3 0
-8 -4 -11 -10z"/>
<path d="M1097 769 c-104 -12 -91 -18 29 -14 59 3 112 9 118 15 12 12 -42 12
-147 -1z"/>
<path d="M1128 703 c6 -2 18 -2 25 0 6 3 1 5 -13 5 -14 0 -19 -2 -12 -5z"/>
<path d="M1281 353 c2 -93 2 -95 9 -38 11 89 11 135 0 135 -6 0 -9 -38 -9 -97z"/>
<path d="M815 155 c-33 -15 -29 -18 27 -15 20 1 47 -4 59 -11 17 -8 24 -9 27
-1 2 8 12 6 30 -6 25 -15 24 -14 -5 16 -25 25 -39 32 -70 31 -21 0 -51 -7 -68
-14z"/>
</g>
</svg>
